<?xml version="1.0" encoding="UTF-8" standalone="no"?>
<!DOCTYPE svg PUBLIC "-//W3C//DTD SVG 1.1//EN" "http://www.w3.org/Graphics/SVG/1.1/DTD/svg11.dtd">
<svg version="1.1" xmlns="http://www.w3.org/2000/svg" xmlns:xlink="http://www.w3.org/1999/xlink" preserveAspectRatio="xMidYMid meet" viewBox="-4 -3.999999999999986 119.11111111111114 133.39682539682542" width="111.11" height="125.4"><defs><path d="M91.11 0C102.16 0 111.11 8.95 111.11 20C111.11 41.08 111.11 84.32 111.11 105.4C111.11 116.44 102.16 125.4 91.11 125.4C72.89 125.4 38.22 125.4 20 125.4C8.95 125.4 0 116.44 0 105.4C0 84.32 0 41.08 0 20C0 8.95 8.95 0 20 0C38.22 0 72.89 0 91.11 0Z" id="he80Zi0d"></path><path d="M96.19 35.8L16.83 35.8" id="d5kkTGbf5w"></path><path d="M96.19 62.7L16.83 62.7" id="d5nrwSDm9"></path><path d="M70.83 88.49L16.83 88.49" id="acLHLWdoB"></path></defs><g><g><g><use xlink:href="#he80Zi0d" opacity="1" fill-opacity="0" stroke="#000000" stroke-width="8" stroke-opacity="1"></use></g></g><g><g><use xlink:href="#d5kkTGbf5w" opacity="1" fill-opacity="0" stroke="#000000" stroke-width="8" stroke-opacity="1"></use></g></g><g><g><use xlink:href="#d5nrwSDm9" opacity="1" fill-opacity="0" stroke="#000000" stroke-width="8" stroke-opacity="1"></use></g></g><g><g><use xlink:href="#acLHLWdoB" opacity="1" fill-opacity="0" stroke="#000000" stroke-width="8" stroke-opacity="1"></use></g></g></g></svg>